# Blender v2.78 (sub 0) OBJ File: 'scene.blend'
# www.blender.org
mtllib amulet1.mtl
o amulet1_amulets
v 0.189421 0.052742 -0.001010
v 0.134307 0.079737 -0.001010
v -0.000752 0.052742 -0.257797
v -0.000752 0.079737 -0.183378
v -0.135811 0.079737 -0.001010
v -0.000752 0.079737 0.181358
v -0.000752 0.052742 0.255776
v -0.190925 0.052742 -0.001010
v 0.189421 0.059164 -0.001010
v 0.134307 0.086159 -0.001010
v -0.000752 0.059164 -0.257797
v -0.000752 0.086159 -0.183378
v -0.135811 0.086159 -0.001010
v -0.000752 0.086159 0.181358
v -0.000752 0.059164 0.255776
v -0.190925 0.059164 -0.001010
v 0.031572 0.017306 -0.346982
v -0.033076 0.017306 -0.346982
v 0.031572 0.021020 -0.346089
v -0.033076 0.021020 -0.346089
v 0.031572 0.024169 -0.343548
v -0.033076 0.024169 -0.343548
v 0.031572 0.026273 -0.339746
v -0.033076 0.026273 -0.339746
v 0.031572 0.027011 -0.335260
v -0.033076 0.027011 -0.335260
v 0.031572 0.026273 -0.330774
v -0.033076 0.026273 -0.330774
v 0.031572 0.024169 -0.326972
v -0.033076 0.024169 -0.326972
v 0.031572 0.021020 -0.324431
v -0.033076 0.021020 -0.324431
v 0.031572 0.017306 -0.323538
v -0.033076 0.017306 -0.323538
v 0.031572 0.013592 -0.324431
v -0.033076 0.013592 -0.324431
v 0.031572 0.010443 -0.326972
v -0.033076 0.010443 -0.326972
v 0.031572 0.008339 -0.330774
v -0.033076 0.008339 -0.330774
v 0.031572 0.007600 -0.335260
v -0.033076 0.007600 -0.335260
v 0.031572 0.008339 -0.339746
v -0.033076 0.008339 -0.339746
v 0.031572 0.010443 -0.343548
v -0.033076 0.010443 -0.343548
v 0.031572 0.013592 -0.346089
v -0.033076 0.013592 -0.346089
v 0.031572 0.017306 -0.356152
v 0.031572 0.023926 -0.354562
v -0.033076 0.023926 -0.354562
v -0.033076 0.017306 -0.356152
v 0.031572 0.029538 -0.350033
v -0.033076 0.029538 -0.350033
v 0.031572 0.033288 -0.343255
v -0.033076 0.033288 -0.343255
v 0.031572 0.034604 -0.335260
v -0.033076 0.034604 -0.335260
v 0.031572 0.033288 -0.327265
v -0.033076 0.033288 -0.327265
v 0.031572 0.029538 -0.320487
v -0.033076 0.029538 -0.320487
v 0.031572 0.023926 -0.315959
v -0.033076 0.023926 -0.315959
v 0.031572 0.017306 -0.314368
v -0.033076 0.017306 -0.314368
v 0.031572 0.010686 -0.315959
v -0.033076 0.010686 -0.315959
v 0.031572 0.005074 -0.320487
v -0.033076 0.005074 -0.320487
v 0.031572 0.001324 -0.327265
v -0.033076 0.001324 -0.327265
v 0.031572 0.000007 -0.335260
v -0.033076 0.000007 -0.335260
v 0.031572 0.001324 -0.343255
v -0.033076 0.001324 -0.343255
v 0.031572 0.005074 -0.350033
v -0.033076 0.005074 -0.350033
v 0.031572 0.010686 -0.354562
v -0.033076 0.010686 -0.354562
v -0.026372 0.016243 -0.316296
v -0.023810 0.020680 -0.316296
v -0.018686 0.020680 -0.316296
v -0.016124 0.016243 -0.316296
v -0.018686 0.011805 -0.316296
v -0.023810 0.011805 -0.316296
v -0.024422 0.016243 -0.306491
v -0.022055 0.020680 -0.307472
v -0.017321 0.020680 -0.309433
v -0.014954 0.016243 -0.310413
v -0.017321 0.011805 -0.309433
v -0.022055 0.011805 -0.307472
v -0.018868 0.016243 -0.298179
v -0.017057 0.020680 -0.299991
v -0.013433 0.020680 -0.303614
v -0.011622 0.016243 -0.305426
v -0.013433 0.011805 -0.303614
v -0.017057 0.011805 -0.299991
v -0.010556 0.016243 -0.292626
v -0.009576 0.020680 -0.294993
v -0.007615 0.020680 -0.299727
v -0.006635 0.016243 -0.302094
v -0.007615 0.011805 -0.299727
v -0.009576 0.011805 -0.294993
v 0.009053 0.016243 -0.292626
v 0.008072 0.020680 -0.294993
v 0.006111 0.020680 -0.299727
v 0.005131 0.016243 -0.302094
v 0.006111 0.011805 -0.299727
v 0.008072 0.011805 -0.294993
v 0.017364 0.016243 -0.298179
v 0.015553 0.020680 -0.299991
v 0.011929 0.020680 -0.303614
v 0.010118 0.016243 -0.305426
v 0.011929 0.011805 -0.303614
v 0.015553 0.011805 -0.299991
v 0.022918 0.016243 -0.306491
v 0.020551 0.020680 -0.307472
v 0.015817 0.020680 -0.309433
v 0.013450 0.016243 -0.310413
v 0.015817 0.011805 -0.309433
v 0.020551 0.011805 -0.307472
v 0.024869 0.016243 -0.316296
v 0.022306 0.020680 -0.316296
v 0.017182 0.020680 -0.316296
v 0.014620 0.016243 -0.316296
v 0.017182 0.011805 -0.316296
v 0.022306 0.011805 -0.316296
v -0.104521 0.081771 -0.001010
v 0.103017 0.081771 -0.001010
v -0.000752 0.081771 0.139108
v -0.000752 0.081771 -0.141128
v -0.000752 0.117682 0.092031
v -0.000752 0.117682 -0.094052
v -0.069657 0.117682 -0.001010
v 0.068153 0.117682 -0.001010
v -0.000752 0.142715 -0.001006
v -0.239184 0.004837 -0.001010
v -0.208091 0.031419 -0.001010
v -0.000752 0.004837 0.320940
v -0.000752 0.031419 0.278956
v -0.000752 0.004837 -0.322960
v -0.000752 0.031419 -0.280976
v 0.237680 0.004837 -0.001010
v 0.206587 0.031419 -0.001010
v -0.000752 0.031419 0.297223
v -0.221619 0.031419 -0.001010
v -0.000752 0.031419 -0.299244
v 0.220115 0.031419 -0.001010
v -0.000752 0.044334 0.278956
v -0.000752 0.044334 -0.280976
v -0.208091 0.044334 -0.001010
v 0.206587 0.044334 -0.001010
v -0.000752 0.089284 0.155038
v -0.000752 0.089284 -0.157058
v -0.095726 0.080278 -0.001010
v 0.094222 0.080278 -0.001010
v -0.000752 0.080278 0.127232
v -0.116319 0.089284 -0.001010
v -0.000752 0.080278 -0.129252
v 0.114815 0.089284 -0.001010
v -0.239184 0.004837 -0.001010
v -0.000752 0.004837 0.320940
v -0.000752 0.004837 -0.322960
v 0.237680 0.004837 -0.001010
v -0.000752 0.031419 0.278956
v -0.208091 0.031419 -0.001010
v -0.000752 0.031419 -0.280976
v 0.206587 0.031419 -0.001010
vt 0.6589 0.8942
vt 0.4055 0.8942
vt 0.4315 0.8531
vt 0.6115 0.8531
vt 0.5356 0.1574
vt 0.7890 0.1574
vt 0.7416 0.1985
vt 0.5616 0.1985
vt 0.5488 0.0880
vt 0.8022 0.0880
vt 0.7762 0.1291
vt 0.5962 0.1291
vt 0.7892 0.4427
vt 0.5358 0.4427
vt 0.5832 0.4016
vt 0.7631 0.4016
vt 0.2551 0.9925
vt 0.5084 0.9925
vt 0.5084 0.9976
vt 0.2551 0.9976
vt 0.2551 0.9876
vt 0.0017 0.9876
vt 0.0017 0.9825
vt 0.2551 0.9825
vt 0.7014 0.9976
vt 0.5215 0.9976
vt 0.5215 0.9925
vt 0.7014 0.9925
vt 0.7534 0.2044
vt 0.9333 0.2044
vt 0.9333 0.2095
vt 0.7534 0.2095
vt 0.5084 0.9876
vt 0.5084 0.9825
vt 0.0017 0.9925
vt 0.0017 0.9976
vt 0.5735 0.2044
vt 0.5735 0.2095
vt 0.8814 0.9976
vt 0.8814 0.9925
vt 0.0536 0.0490
vt 0.0024 0.0490
vt 0.0024 0.0436
vt 0.0536 0.0436
vt 0.0024 0.0379
vt 0.0536 0.0379
vt 0.0024 0.0318
vt 0.0536 0.0318
vt 0.0024 0.0254
vt 0.0536 0.0254
vt 0.0024 0.0189
vt 0.0536 0.0189
vt 0.0024 0.0128
vt 0.0536 0.0128
vt 0.0024 0.0071
vt 0.0536 0.0071
vt 0.0024 0.0017
vt 0.0536 0.0017
vt 0.0536 0.0964
vt 0.0024 0.0964
vt 0.0024 0.0910
vt 0.0536 0.0910
vt 0.0024 0.0853
vt 0.0536 0.0853
vt 0.0024 0.0792
vt 0.0536 0.0792
vt 0.0024 0.0727
vt 0.0536 0.0727
vt 0.0024 0.0663
vt 0.0536 0.0663
vt 0.0024 0.0602
vt 0.0536 0.0602
vt 0.0408 0.4478
vt 0.0117 0.4543
vt 0.0139 0.4570
vt 0.0383 0.4409
vt 0.0024 0.0544
vt 0.0536 0.0544
vt 0.0408 0.4546
vt 0.0109 0.4512
vt 0.0261 0.6447
vt 0.0248 0.6419
vt 0.0304 0.6374
vt 0.0327 0.6422
vt 0.0248 0.1100
vt 0.0224 0.1081
vt 0.0261 0.1021
vt 0.0304 0.1054
vt 0.0261 0.6479
vt 0.0327 0.6480
vt 0.0192 0.1074
vt 0.0206 0.1009
vt 0.0248 0.6511
vt 0.0304 0.6537
vt 0.0158 0.1080
vt 0.0145 0.1019
vt 0.0224 0.6538
vt 0.0261 0.6584
vt 0.0127 0.1098
vt 0.0089 0.1051
vt 0.0192 0.6555
vt 0.0206 0.6616
vt 0.0103 0.1125
vt 0.0046 0.1099
vt 0.0158 0.6561
vt 0.0145 0.6627
vt 0.0090 0.1157
vt 0.0023 0.1156
vt 0.0127 0.6555
vt 0.0089 0.6615
vt 0.0090 0.1189
vt 0.0023 0.1213
vt 0.0103 0.6536
vt 0.0046 0.6582
vt 0.0103 0.1216
vt 0.0046 0.1262
vt 0.0090 0.6509
vt 0.0023 0.6533
vt 0.0127 0.1235
vt 0.0089 0.1295
vt 0.0090 0.6477
vt 0.0023 0.6476
vt 0.0158 0.1242
vt 0.0145 0.1307
vt 0.0103 0.6445
vt 0.0046 0.6419
vt 0.0192 0.1236
vt 0.0206 0.1296
vt 0.0127 0.6418
vt 0.0089 0.6371
vt 0.0224 0.1218
vt 0.0261 0.1265
vt 0.0158 0.6400
vt 0.0145 0.6339
vt 0.0248 0.1191
vt 0.0304 0.1217
vt 0.0192 0.6394
vt 0.0206 0.6329
vt 0.0261 0.1159
vt 0.0327 0.1160
vt 0.0224 0.6401
vt 0.0261 0.6341
vt 0.0261 0.1127
vt 0.0327 0.1103
vt 0.0174 0.4592
vt 0.0328 0.4349
vt 0.0217 0.4600
vt 0.0248 0.4317
vt 0.0261 0.4592
vt 0.0163 0.4323
vt 0.0296 0.4571
vt 0.0093 0.4360
vt 0.0317 0.4543
vt 0.0047 0.4416
vt 0.0322 0.4512
vt 0.0024 0.4479
vt 0.0314 0.4482
vt 0.0023 0.4546
vt 0.0294 0.4453
vt 0.0049 0.4615
vt 0.0260 0.4431
vt 0.0104 0.4675
vt 0.0216 0.4423
vt 0.0185 0.4707
vt 0.0172 0.4433
vt 0.0270 0.4702
vt 0.0138 0.4454
vt 0.0341 0.4665
vt 0.0116 0.4482
vt 0.0386 0.4609
vt 0.0241 0.3912
vt 0.0165 0.3910
vt 0.0164 0.3874
vt 0.0236 0.3867
vt 0.0162 0.3833
vt 0.0221 0.3825
vt 0.0159 0.3790
vt 0.0210 0.3782
vt 0.0202 0.4039
vt 0.0151 0.4028
vt 0.0158 0.3986
vt 0.0216 0.3997
vt 0.0162 0.3945
vt 0.0233 0.3956
vt 0.0098 0.3908
vt 0.0100 0.3872
vt 0.0104 0.3834
vt 0.0107 0.3791
vt 0.0101 0.4025
vt 0.0100 0.3982
vt 0.0098 0.3943
vt 0.0024 0.3906
vt 0.0031 0.3863
vt 0.0046 0.3823
vt 0.0058 0.3782
vt 0.0051 0.4031
vt 0.0042 0.3989
vt 0.0029 0.3949
vt 0.0421 0.2521
vt 0.0496 0.2523
vt 0.0496 0.2559
vt 0.0426 0.2565
vt 0.0498 0.2597
vt 0.0440 0.2607
vt 0.0501 0.2640
vt 0.0451 0.2648
vt 0.0456 0.2396
vt 0.0506 0.2405
vt 0.0502 0.2449
vt 0.0444 0.2438
vt 0.0498 0.2487
vt 0.0428 0.2478
vt 0.0562 0.2525
vt 0.0560 0.2560
vt 0.0556 0.2600
vt 0.0551 0.2642
vt 0.0557 0.2405
vt 0.0560 0.2449
vt 0.0561 0.2489
vt 0.0638 0.2529
vt 0.0629 0.2571
vt 0.0613 0.2611
vt 0.0600 0.2652
vt 0.0608 0.2396
vt 0.0620 0.2439
vt 0.0634 0.2483
vt 0.2975 0.8569
vt 0.2923 0.7990
vt 0.3687 0.7990
vt 0.6970 0.5956
vt 0.7683 0.6535
vt 0.6919 0.6535
vt 0.6980 0.9500
vt 0.5597 0.9500
vt 0.5897 0.9139
vt 0.6815 0.9139
vt 0.5427 0.6281
vt 0.6809 0.6281
vt 0.6509 0.6642
vt 0.5591 0.6642
vt 0.1402 0.6271
vt 0.0020 0.6271
vt 0.0184 0.5910
vt 0.1102 0.5910
vt 0.1373 0.2292
vt 0.2756 0.2292
vt 0.2591 0.2653
vt 0.1673 0.2653
vt 0.3113 0.5085
vt 0.3438 0.5567
vt 0.2520 0.5567
vt 0.2797 0.4782
vt 0.2797 0.4018
vt 0.3376 0.4730
vt 0.1315 0.6791
vt 0.1536 0.6615
vt 0.4316 0.7580
vt 0.4316 0.7833
vt 0.7096 0.6615
vt 0.7317 0.6791
vt 0.0411 0.2299
vt 0.0923 0.0370
vt 0.2918 0.0297
vt 0.2779 0.9111
vt 0.0017 0.9111
vt 0.0017 0.9009
vt 0.2779 0.9009
vt 0.0023 0.6835
vt 0.3024 0.5793
vt 0.3024 0.6046
vt 0.0244 0.7011
vt 0.6025 0.6835
vt 0.5804 0.7011
vt 0.2406 0.2226
vt 0.0017 0.9577
vt 0.2779 0.9577
vt 0.2779 0.9679
vt 0.0017 0.9679
vt 0.0135 0.2748
vt 0.2898 0.2748
vt 0.2962 0.2834
vt 0.0019 0.2834
vt 0.3703 0.0105
vt 0.3820 0.0019
vt 0.0941 0.0105
vt 0.0877 0.0019
vt 0.5990 0.0022
vt 0.6423 0.0707
vt 0.3661 0.0707
vt 0.4450 0.0022
vt 0.5542 0.9577
vt 0.5542 0.9679
vt 0.5542 0.9111
vt 0.5542 0.9009
vt 0.6383 0.4630
vt 0.7649 0.4630
vt 0.7746 0.4780
vt 0.6206 0.4780
vt 0.3210 0.2426
vt 0.4475 0.2426
vt 0.4653 0.2576
vt 0.3113 0.2576
vt 0.7992 0.0762
vt 0.6727 0.0762
vt 0.6550 0.0612
vt 0.8090 0.0612
vt 0.7224 0.2365
vt 0.5959 0.2365
vt 0.5861 0.2215
vt 0.7401 0.2215
vt 0.4576 0.6074
vt 0.3786 0.5389
vt 0.6549 0.5389
vt 0.6116 0.6074
vt 0.3716 0.4394
vt 0.3283 0.3709
vt 0.6045 0.3709
vt 0.5256 0.4394
vt 0.3408 0.1547
vt 0.3842 0.0862
vt 0.5381 0.0862
vt 0.6171 0.1547
vn 0.0000 0.4667 -0.8844
vn -0.8906 0.4548 -0.0000
vn 0.1987 0.9801 0.0000
vn -0.0000 0.9961 0.0880
vn 0.8906 0.4548 0.0000
vn -0.1987 0.9801 -0.0000
vn -0.0000 0.4667 0.8844
vn -0.0000 0.9961 -0.0880
vn 1.0000 0.0000 0.0000
vn 0.0000 0.0000 -1.0000
vn -1.0000 0.0000 -0.0000
vn -0.0000 0.0000 1.0000
vn 0.6581 -0.0000 -0.7529
vn -0.6581 -0.0000 -0.7529
vn -0.6608 0.3314 -0.6734
vn 0.6608 0.3314 -0.6734
vn -0.6663 0.5710 -0.4796
vn 0.6663 0.5710 -0.4796
vn -0.6707 0.7007 -0.2433
vn 0.6707 0.7007 -0.2433
vn -0.6723 0.7403 0.0000
vn 0.6723 0.7403 0.0000
vn -0.6707 0.7007 0.2434
vn 0.6707 0.7007 0.2434
vn -0.6663 0.5710 0.4796
vn 0.6663 0.5710 0.4796
vn -0.6608 0.3314 0.6734
vn 0.6608 0.3314 0.6734
vn -0.6581 -0.0000 0.7529
vn 0.6581 -0.0000 0.7529
vn -0.6608 -0.3314 0.6734
vn 0.6608 -0.3314 0.6734
vn -0.6663 -0.5710 0.4795
vn 0.6663 -0.5710 0.4795
vn -0.6707 -0.7006 0.2433
vn 0.6707 -0.7006 0.2433
vn -0.6723 -0.7403 0.0000
vn 0.6723 -0.7403 0.0000
vn -0.6707 -0.7006 -0.2433
vn 0.6707 -0.7006 -0.2433
vn -0.6663 -0.5710 -0.4795
vn 0.6663 -0.5710 -0.4795
vn 0.7601 0.2870 0.5830
vn -0.7601 0.2870 0.5830
vn -0.7530 0.5039 0.4232
vn 0.7530 0.5039 0.4232
vn -0.6608 -0.3314 -0.6734
vn 0.6608 -0.3314 -0.6734
vn 0.7637 0.0000 0.6456
vn -0.7637 0.0000 0.6456
vn 0.7601 -0.2870 0.5830
vn -0.7601 -0.2870 0.5830
vn 0.7530 -0.5039 0.4232
vn -0.7530 -0.5039 0.4232
vn 0.7475 -0.6275 0.2179
vn -0.7475 -0.6275 0.2179
vn 0.7456 -0.6664 -0.0000
vn -0.7456 -0.6664 -0.0000
vn 0.7475 -0.6275 -0.2179
vn -0.7475 -0.6275 -0.2179
vn 0.7530 -0.5039 -0.4232
vn -0.7530 -0.5039 -0.4232
vn 0.7601 -0.2870 -0.5830
vn -0.7601 -0.2870 -0.5830
vn 0.7637 0.0000 -0.6456
vn -0.7637 0.0000 -0.6456
vn 0.7601 0.2870 -0.5830
vn -0.7601 0.2870 -0.5830
vn 0.7530 0.5039 -0.4232
vn -0.7530 0.5039 -0.4232
vn 0.7475 0.6275 -0.2179
vn -0.7475 0.6275 -0.2179
vn 0.7456 0.6664 -0.0000
vn -0.7456 0.6664 -0.0000
vn 0.7475 0.6275 0.2179
vn -0.7475 0.6275 0.2179
vn -0.9808 -0.0000 0.1951
vn -0.9239 -0.0000 0.3827
vn -0.5025 0.8391 0.2082
vn -0.5408 0.8342 0.1076
vn 0.4160 0.8929 -0.1723
vn 0.4485 0.8893 -0.0892
vn 0.9239 -0.0000 -0.3827
vn 0.9808 -0.0000 -0.1951
vn 0.4160 -0.8929 -0.1723
vn 0.4485 -0.8893 -0.0892
vn -0.5025 -0.8391 0.2082
vn -0.5408 -0.8342 0.1076
vn -0.7071 0.0000 0.7071
vn -0.3846 0.8391 0.3846
vn 0.3184 0.8929 -0.3184
vn 0.7071 0.0000 -0.7071
vn 0.3184 -0.8929 -0.3184
vn -0.3846 -0.8391 0.3846
vn -0.5556 0.0000 0.8315
vn -0.3063 0.8342 0.4585
vn 0.2540 0.8893 -0.3802
vn 0.5556 -0.0000 -0.8315
vn 0.2540 -0.8893 -0.3802
vn -0.3063 -0.8342 0.4585
vn 0.5556 0.0000 0.8315
vn 0.7071 0.0000 0.7071
vn 0.3846 0.8391 0.3846
vn 0.3063 0.8342 0.4585
vn -0.3184 0.8929 -0.3184
vn -0.2540 0.8893 -0.3802
vn -0.7071 0.0000 -0.7071
vn -0.5556 -0.0000 -0.8315
vn -0.3184 -0.8929 -0.3184
vn -0.2540 -0.8893 -0.3802
vn 0.3846 -0.8391 0.3846
vn 0.3063 -0.8342 0.4585
vn 0.9239 -0.0000 0.3827
vn 0.5025 0.8391 0.2082
vn -0.4160 0.8929 -0.1723
vn -0.9239 -0.0000 -0.3827
vn -0.4160 -0.8929 -0.1723
vn 0.5025 -0.8391 0.2082
vn 0.9808 -0.0000 0.1951
vn 0.5408 0.8342 0.1076
vn -0.4485 0.8893 -0.0892
vn -0.9808 -0.0000 -0.1951
vn -0.4485 -0.8893 -0.0892
vn 0.5408 -0.8342 0.1076
vn -0.6000 0.8000 -0.0000
vn -0.0000 1.0000 0.0000
vn -0.0000 0.8536 -0.5210
vn 0.6000 0.8000 -0.0000
vn -0.7175 0.6966 -0.0000
vn 0.0000 0.7951 0.6065
vn 0.0000 0.8536 0.5210
vn 0.7175 0.6966 0.0000
vn 0.0000 0.7951 -0.6065
vn 0.0000 0.6657 0.7462
vn -0.0000 0.8251 0.5651
vn -0.5949 0.8038 -0.0000
vn -0.8343 0.5513 -0.0000
vn 0.0000 0.8251 -0.5651
vn 0.0000 0.6657 -0.7462
vn 0.0000 -1.0000 -0.0000
vn 0.8343 0.5513 0.0000
vn 0.5949 0.8038 0.0000
vn -0.1862 0.9825 0.0000
vn -0.0000 0.9795 0.2014
vn -0.0000 0.9513 -0.3081
vn 0.4007 0.9162 0.0000
vn 0.0000 0.9513 0.3081
vn -0.0000 0.9795 -0.2014
vn -0.4007 0.9162 -0.0000
vn 0.1862 0.9825 0.0000
usemtl amulet1_2
s 1
f 11/1/1 16/2/2 13/3/3 12/4/4
f 9/5/5 11/6/1 12/7/4 10/8/6
f 15/9/7 9/10/5 10/11/6 14/12/8
f 16/13/2 15/14/7 14/15/8 13/16/3
f 1/17/9 3/18/10 11/19/1 9/20/5
f 8/21/11 7/22/12 15/23/7 16/24/2
f 2/25/11 6/26/10 14/27/8 10/28/6
f 5/29/9 4/30/12 12/31/4 13/32/3
f 3/33/10 8/21/11 16/24/2 11/34/1
f 7/35/12 1/17/9 9/20/5 15/36/7
f 6/37/10 5/29/9 13/32/3 14/38/8
f 4/39/12 2/25/11 10/28/6 12/40/4
f 49/41/13 52/42/14 51/43/15 50/44/16
f 50/44/16 51/43/15 54/45/17 53/46/18
f 53/46/18 54/45/17 56/47/19 55/48/20
f 55/48/20 56/47/19 58/49/21 57/50/22
f 57/50/22 58/49/21 60/51/23 59/52/24
f 59/52/24 60/51/23 62/53/25 61/54/26
f 61/54/26 62/53/25 64/55/27 63/56/28
f 63/56/28 64/55/27 66/57/29 65/58/30
f 65/59/30 66/60/29 68/61/31 67/62/32
f 67/62/32 68/61/31 70/63/33 69/64/34
f 69/64/34 70/63/33 72/65/35 71/66/36
f 71/66/36 72/65/35 74/67/37 73/68/38
f 73/68/38 74/67/37 76/69/39 75/70/40
f 75/70/40 76/69/39 78/71/41 77/72/42
f 47/73/43 48/74/44 46/75/45 45/76/46
f 77/72/42 78/71/41 80/77/47 79/78/48
f 79/78/48 80/77/47 52/42/14 49/41/13
f 17/79/49 18/80/50 48/74/44 47/73/43
f 19/81/51 17/82/49 49/83/13 50/84/16
f 18/85/50 20/86/52 51/87/15 52/88/14
f 21/89/53 19/81/51 50/84/16 53/90/18
f 20/86/52 22/91/54 54/92/17 51/87/15
f 23/93/55 21/89/53 53/90/18 55/94/20
f 22/91/54 24/95/56 56/96/19 54/92/17
f 25/97/57 23/93/55 55/94/20 57/98/22
f 24/95/56 26/99/58 58/100/21 56/96/19
f 27/101/59 25/97/57 57/98/22 59/102/24
f 26/99/58 28/103/60 60/104/23 58/100/21
f 29/105/61 27/101/59 59/102/24 61/106/26
f 28/103/60 30/107/62 62/108/25 60/104/23
f 31/109/63 29/105/61 61/106/26 63/110/28
f 30/107/62 32/111/64 64/112/27 62/108/25
f 33/113/65 31/109/63 63/110/28 65/114/30
f 32/111/64 34/115/66 66/116/29 64/112/27
f 35/117/67 33/113/65 65/114/30 67/118/32
f 34/115/66 36/119/68 68/120/31 66/116/29
f 37/121/69 35/117/67 67/118/32 69/122/34
f 36/119/68 38/123/70 70/124/33 68/120/31
f 39/125/71 37/121/69 69/122/34 71/126/36
f 38/123/70 40/127/72 72/128/35 70/124/33
f 41/129/73 39/125/71 71/126/36 73/130/38
f 40/127/72 42/131/74 74/132/37 72/128/35
f 43/133/75 41/129/73 73/130/38 75/134/40
f 42/131/74 44/135/76 76/136/39 74/132/37
f 45/137/46 43/133/75 75/134/40 77/138/42
f 44/135/76 46/139/45 78/140/41 76/136/39
f 47/141/43 45/137/46 77/138/42 79/142/48
f 46/139/45 48/143/44 80/144/47 78/140/41
f 17/82/49 47/141/43 79/142/48 49/83/13
f 48/143/44 18/85/50 52/88/14 80/144/47
f 45/76/46 46/75/45 44/145/76 43/146/75
f 43/146/75 44/145/76 42/147/74 41/148/73
f 41/148/73 42/147/74 40/149/72 39/150/71
f 39/150/71 40/149/72 38/151/70 37/152/69
f 37/152/69 38/151/70 36/153/68 35/154/67
f 35/154/67 36/153/68 34/155/66 33/156/65
f 33/156/65 34/155/66 32/157/64 31/158/63
f 31/158/63 32/157/64 30/159/62 29/160/61
f 29/160/61 30/159/62 28/161/60 27/162/59
f 27/162/59 28/161/60 26/163/58 25/164/57
f 25/164/57 26/163/58 24/165/56 23/166/55
f 23/166/55 24/165/56 22/167/54 21/168/53
f 21/168/53 22/167/54 20/169/52 19/170/51
f 19/170/51 20/169/52 18/80/50 17/79/49
f 81/171/77 87/172/78 88/173/79 82/174/80
f 82/174/80 88/173/79 89/175/81 83/176/82
f 83/176/82 89/175/81 90/177/83 84/178/84
f 84/179/84 90/180/83 91/181/85 85/182/86
f 85/182/86 91/181/85 92/183/87 86/184/88
f 81/171/77 86/184/88 92/183/87 87/172/78
f 87/172/78 93/185/89 94/186/90 88/173/79
f 88/173/79 94/186/90 95/187/91 89/175/81
f 89/175/81 95/187/91 96/188/92 90/177/83
f 90/180/83 96/189/92 97/190/93 91/181/85
f 91/181/85 97/190/93 98/191/94 92/183/87
f 92/183/87 98/191/94 93/185/89 87/172/78
f 93/185/89 99/192/95 100/193/96 94/186/90
f 94/186/90 100/193/96 101/194/97 95/187/91
f 95/187/91 101/194/97 102/195/98 96/188/92
f 96/189/92 102/196/98 103/197/99 97/190/93
f 97/190/93 103/197/99 104/198/100 98/191/94
f 98/191/94 104/198/100 99/192/95 93/185/89
f 105/199/101 111/200/102 112/201/103 106/202/104
f 106/202/104 112/201/103 113/203/105 107/204/106
f 107/204/106 113/203/105 114/205/107 108/206/108
f 108/207/108 114/208/107 115/209/109 109/210/110
f 109/210/110 115/209/109 116/211/111 110/212/112
f 110/212/112 116/211/111 111/200/102 105/199/101
f 111/200/102 117/213/113 118/214/114 112/201/103
f 112/201/103 118/214/114 119/215/115 113/203/105
f 113/203/105 119/215/115 120/216/116 114/205/107
f 114/208/107 120/217/116 121/218/117 115/209/109
f 115/209/109 121/218/117 122/219/118 116/211/111
f 116/211/111 122/219/118 117/213/113 111/200/102
f 117/213/113 123/220/119 124/221/120 118/214/114
f 118/214/114 124/221/120 125/222/121 119/215/115
f 119/215/115 125/222/121 126/223/122 120/216/116
f 120/217/116 126/224/122 127/225/123 121/218/117
f 121/218/117 127/225/123 128/226/124 122/219/118
f 122/219/118 128/226/124 123/220/119 117/213/113
f 135/227/125 137/228/126 134/229/127
f 136/230/128 134/231/127 137/232/126
f 129/233/129 131/234/130 133/235/131 135/236/125
f 130/237/132 132/238/133 134/239/127 136/240/128
f 132/241/133 129/242/129 135/243/125 134/244/127
f 131/245/130 130/246/132 136/247/128 133/248/131
f 137/249/126 135/250/125 133/251/131
f 137/252/126 133/253/131 136/254/128
f 163/255/134 146/256/135 147/257/136 162/258/137
f 162/258/137 147/257/136 148/259/138 164/260/139
f 140/261/140 138/262/140 142/263/140
f 167/264/11 166/265/12 150/266/7 152/267/2
f 163/268/134 165/269/141 149/270/142 146/271/135
f 165/269/141 164/272/139 148/273/138 149/270/142
f 140/261/140 142/263/140 144/274/140
f 166/275/12 169/276/9 153/277/5 150/278/7
f 141/279/126 139/280/126 147/281/136 146/282/135
f 139/280/126 168/283/126 148/284/138 147/281/136
f 145/285/126 141/279/126 146/282/135 149/286/142
f 168/283/126 145/285/126 149/286/142 148/284/138
f 159/287/143 152/288/2 150/289/7 154/290/144
f 169/276/9 143/291/10 151/292/1 153/277/5
f 143/293/10 167/264/11 152/267/2 151/294/1
f 158/295/145 156/296/146 159/297/143 154/298/144
f 156/299/146 160/300/147 155/301/148 159/302/143
f 157/303/149 158/304/145 154/305/144 161/306/150
f 160/307/147 157/308/149 161/309/150 155/310/148
f 154/311/144 150/312/7 153/313/5 161/314/150
f 161/315/150 153/316/5 151/317/1 155/318/148
f 152/319/2 159/320/143 155/321/148 151/322/1
