# Blender v2.78 (sub 0) OBJ File: 'scene.blend'
# www.blender.org
mtllib amulet2.mtl
o amulet2_amulets.001
v 0.188922 0.052742 -0.001010
v 0.133809 0.079737 -0.001010
v -0.001250 0.052742 -0.257797
v -0.001250 0.079737 -0.183378
v -0.136310 0.079737 -0.001010
v -0.001250 0.079737 0.181358
v -0.001250 0.052742 0.255776
v -0.191423 0.052742 -0.001010
v 0.188922 0.059164 -0.001010
v 0.133809 0.086159 -0.001010
v -0.001250 0.059164 -0.257797
v -0.001250 0.086159 -0.183378
v -0.136310 0.086159 -0.001010
v -0.001250 0.086159 0.181358
v -0.001250 0.059164 0.255776
v -0.191423 0.059164 -0.001010
v 0.031074 0.017306 -0.346982
v -0.033574 0.017306 -0.346982
v 0.031074 0.021020 -0.346089
v -0.033574 0.021020 -0.346089
v 0.031074 0.024169 -0.343548
v -0.033574 0.024169 -0.343548
v 0.031074 0.026273 -0.339746
v -0.033574 0.026273 -0.339746
v 0.031074 0.027011 -0.335260
v -0.033574 0.027011 -0.335260
v 0.031074 0.026273 -0.330774
v -0.033574 0.026273 -0.330774
v 0.031074 0.024169 -0.326972
v -0.033574 0.024169 -0.326972
v 0.031074 0.021020 -0.324431
v -0.033574 0.021020 -0.324431
v 0.031074 0.017306 -0.323538
v -0.033574 0.017306 -0.323538
v 0.031074 0.013592 -0.324431
v -0.033574 0.013592 -0.324431
v 0.031074 0.010443 -0.326972
v -0.033574 0.010443 -0.326972
v 0.031074 0.008339 -0.330774
v -0.033574 0.008339 -0.330774
v 0.031074 0.007600 -0.335260
v -0.033574 0.007600 -0.335260
v 0.031074 0.008339 -0.339746
v -0.033574 0.008339 -0.339746
v 0.031074 0.010443 -0.343548
v -0.033574 0.010443 -0.343548
v 0.031074 0.013592 -0.346089
v -0.033574 0.013592 -0.346089
v 0.031074 0.017306 -0.356152
v 0.031074 0.023926 -0.354562
v -0.033574 0.023926 -0.354562
v -0.033574 0.017306 -0.356152
v 0.031074 0.029538 -0.350033
v -0.033574 0.029538 -0.350033
v 0.031074 0.033288 -0.343255
v -0.033574 0.033288 -0.343255
v 0.031074 0.034604 -0.335260
v -0.033574 0.034604 -0.335260
v 0.031074 0.033288 -0.327265
v -0.033574 0.033288 -0.327265
v 0.031074 0.029538 -0.320487
v -0.033574 0.029538 -0.320487
v 0.031074 0.023926 -0.315959
v -0.033574 0.023926 -0.315959
v 0.031074 0.017306 -0.314368
v -0.033574 0.017306 -0.314368
v 0.031074 0.010686 -0.315959
v -0.033574 0.010686 -0.315959
v 0.031074 0.005074 -0.320487
v -0.033574 0.005074 -0.320487
v 0.031074 0.001324 -0.327265
v -0.033574 0.001324 -0.327265
v 0.031074 0.000007 -0.335260
v -0.033574 0.000007 -0.335260
v 0.031074 0.001324 -0.343255
v -0.033574 0.001324 -0.343255
v 0.031074 0.005074 -0.350033
v -0.033574 0.005074 -0.350033
v 0.031074 0.010686 -0.354562
v -0.033574 0.010686 -0.354562
v -0.026871 0.016243 -0.316296
v -0.024309 0.020680 -0.316296
v -0.019184 0.020680 -0.316296
v -0.016622 0.016243 -0.316296
v -0.019184 0.011805 -0.316296
v -0.024309 0.011805 -0.316296
v -0.024920 0.016243 -0.306491
v -0.022553 0.020680 -0.307472
v -0.017819 0.020680 -0.309433
v -0.015452 0.016243 -0.310413
v -0.017819 0.011805 -0.309433
v -0.022553 0.011805 -0.307472
v -0.019367 0.016243 -0.298179
v -0.017555 0.020680 -0.299991
v -0.013932 0.020680 -0.303614
v -0.012120 0.016243 -0.305426
v -0.013932 0.011805 -0.303614
v -0.017555 0.011805 -0.299991
v -0.011055 0.016243 -0.292626
v -0.010074 0.020680 -0.294993
v -0.008113 0.020680 -0.299727
v -0.007133 0.016243 -0.302094
v -0.008113 0.011805 -0.299727
v -0.010074 0.011805 -0.294993
v 0.008554 0.016243 -0.292626
v 0.007574 0.020680 -0.294993
v 0.005613 0.020680 -0.299727
v 0.004633 0.016243 -0.302094
v 0.005613 0.011805 -0.299727
v 0.007574 0.011805 -0.294993
v 0.016866 0.016243 -0.298179
v 0.015055 0.020680 -0.299991
v 0.011431 0.020680 -0.303614
v 0.009620 0.016243 -0.305426
v 0.011431 0.011805 -0.303614
v 0.015055 0.011805 -0.299991
v 0.022420 0.016243 -0.306491
v 0.020053 0.020680 -0.307472
v 0.015319 0.020680 -0.309433
v 0.012952 0.016243 -0.310413
v 0.015319 0.011805 -0.309433
v 0.020053 0.011805 -0.307472
v 0.024370 0.016243 -0.316296
v 0.021808 0.020680 -0.316296
v 0.016684 0.020680 -0.316296
v 0.014122 0.016243 -0.316296
v 0.016684 0.011805 -0.316296
v 0.021808 0.011805 -0.316296
v -0.105019 0.081771 -0.001010
v 0.102519 0.081771 -0.001010
v -0.001250 0.081771 0.139108
v -0.001250 0.081771 -0.141128
v -0.001250 0.117682 0.092031
v -0.001250 0.117682 -0.094052
v -0.070155 0.117682 -0.001010
v 0.067655 0.117682 -0.001010
v -0.001250 0.142715 -0.001006
v -0.239682 0.004837 -0.001010
v -0.208589 0.031419 -0.001010
v -0.001250 0.004837 0.320940
v -0.001250 0.031419 0.278956
v -0.001250 0.004837 -0.322960
v -0.001250 0.031419 -0.280976
v 0.237181 0.004837 -0.001010
v 0.206089 0.031419 -0.001010
v -0.001250 0.031419 0.297223
v -0.222118 0.031419 -0.001010
v -0.001250 0.031419 -0.299244
v 0.219617 0.031419 -0.001010
v -0.001250 0.044334 0.278956
v -0.001250 0.044334 -0.280976
v -0.208589 0.044334 -0.001010
v 0.206089 0.044334 -0.001010
v -0.001250 0.089284 0.155038
v -0.001250 0.089284 -0.157058
v -0.096225 0.080278 -0.001010
v 0.093724 0.080278 -0.001010
v -0.001250 0.080278 0.127232
v -0.116817 0.089284 -0.001010
v -0.001250 0.080278 -0.129252
v 0.114317 0.089284 -0.001010
v -0.239682 0.004837 -0.001010
v -0.001250 0.004837 0.320940
v -0.001250 0.004837 -0.322960
v 0.237181 0.004837 -0.001010
v -0.001250 0.031419 0.278956
v -0.208589 0.031419 -0.001010
v -0.001250 0.031419 -0.280976
v 0.206089 0.031419 -0.001010
vt 0.8020 0.3559
vt 0.5487 0.3559
vt 0.5747 0.3148
vt 0.7546 0.3148
vt 0.0021 0.8346
vt 0.2554 0.8346
vt 0.2080 0.8758
vt 0.0281 0.8758
vt 0.5488 0.2442
vt 0.8022 0.2442
vt 0.7762 0.2854
vt 0.5962 0.2854
vt 0.8152 0.5295
vt 0.5618 0.5295
vt 0.6092 0.4884
vt 0.7892 0.4884
vt 0.2551 0.9726
vt 0.5084 0.9726
vt 0.5084 0.9777
vt 0.2551 0.9777
vt 0.5782 0.3675
vt 0.3249 0.3675
vt 0.3249 0.3624
vt 0.5782 0.3624
vt 0.7014 0.9774
vt 0.5215 0.9774
vt 0.5215 0.9723
vt 0.7014 0.9723
vt 0.7274 0.4469
vt 0.9074 0.4469
vt 0.9074 0.4520
vt 0.7274 0.4520
vt 0.8316 0.3675
vt 0.8316 0.3624
vt 0.0017 0.9726
vt 0.0017 0.9777
vt 0.5475 0.4469
vt 0.5475 0.4520
vt 0.8814 0.9774
vt 0.8814 0.9723
vt 0.0536 0.5297
vt 0.0024 0.5297
vt 0.0024 0.5243
vt 0.0536 0.5243
vt 0.0024 0.5185
vt 0.0536 0.5185
vt 0.0024 0.5124
vt 0.0536 0.5124
vt 0.0024 0.5060
vt 0.0536 0.5060
vt 0.0024 0.4995
vt 0.0536 0.4995
vt 0.0024 0.4934
vt 0.0536 0.4934
vt 0.0024 0.4877
vt 0.0536 0.4877
vt 0.0024 0.4823
vt 0.0536 0.4823
vt 0.0536 0.5770
vt 0.0024 0.5770
vt 0.0024 0.5716
vt 0.0536 0.5716
vt 0.0024 0.5659
vt 0.0536 0.5659
vt 0.0024 0.5598
vt 0.0536 0.5598
vt 0.0024 0.5533
vt 0.0536 0.5533
vt 0.0024 0.5469
vt 0.0536 0.5469
vt 0.0024 0.5408
vt 0.0536 0.5408
vt 0.1189 0.7015
vt 0.0898 0.7080
vt 0.0920 0.7108
vt 0.1164 0.6946
vt 0.0024 0.5350
vt 0.0536 0.5350
vt 0.1189 0.7083
vt 0.0890 0.7050
vt 0.0261 0.7629
vt 0.0248 0.7602
vt 0.0304 0.7556
vt 0.0327 0.7605
vt 0.0248 0.1494
vt 0.0224 0.1475
vt 0.0261 0.1415
vt 0.0304 0.1448
vt 0.0261 0.7661
vt 0.0327 0.7662
vt 0.0192 0.1468
vt 0.0206 0.1403
vt 0.0248 0.7693
vt 0.0304 0.7719
vt 0.0158 0.1474
vt 0.0145 0.1414
vt 0.0224 0.7720
vt 0.0261 0.7767
vt 0.0127 0.1492
vt 0.0089 0.1445
vt 0.0192 0.7738
vt 0.0206 0.7798
vt 0.0103 0.1519
vt 0.0046 0.1493
vt 0.0158 0.7744
vt 0.0145 0.7809
vt 0.0090 0.1551
vt 0.0023 0.1550
vt 0.0127 0.7737
vt 0.0089 0.7797
vt 0.0090 0.1583
vt 0.0023 0.1607
vt 0.0103 0.7718
vt 0.0046 0.7764
vt 0.0103 0.1610
vt 0.0046 0.1656
vt 0.0090 0.7691
vt 0.0023 0.7715
vt 0.0127 0.1629
vt 0.0089 0.1689
vt 0.0090 0.7659
vt 0.0023 0.7658
vt 0.0158 0.1636
vt 0.0145 0.1701
vt 0.0103 0.7627
vt 0.0046 0.7601
vt 0.0192 0.1630
vt 0.0206 0.1690
vt 0.0127 0.7600
vt 0.0089 0.7553
vt 0.0224 0.1612
vt 0.0261 0.1659
vt 0.0158 0.7582
vt 0.0145 0.7521
vt 0.0248 0.1585
vt 0.0304 0.1611
vt 0.0192 0.7576
vt 0.0206 0.7511
vt 0.0261 0.1553
vt 0.0327 0.1554
vt 0.0224 0.7583
vt 0.0261 0.7523
vt 0.0261 0.1521
vt 0.0327 0.1497
vt 0.0955 0.7129
vt 0.1109 0.6886
vt 0.0998 0.7137
vt 0.1029 0.6854
vt 0.1042 0.7129
vt 0.0944 0.6860
vt 0.1077 0.7109
vt 0.0874 0.6897
vt 0.1098 0.7080
vt 0.0828 0.6953
vt 0.1103 0.7049
vt 0.0805 0.7016
vt 0.1096 0.7019
vt 0.0804 0.7083
vt 0.1075 0.6990
vt 0.0830 0.7152
vt 0.1041 0.6968
vt 0.0886 0.7212
vt 0.0997 0.6960
vt 0.0966 0.7244
vt 0.0954 0.6970
vt 0.1051 0.7240
vt 0.0919 0.6991
vt 0.1122 0.7202
vt 0.0897 0.7019
vt 0.1167 0.7147
vt 0.1036 0.2526
vt 0.0961 0.2525
vt 0.0960 0.2489
vt 0.1030 0.2482
vt 0.0958 0.2449
vt 0.1016 0.2441
vt 0.0955 0.2406
vt 0.1005 0.2399
vt 0.1001 0.2651
vt 0.0951 0.2642
vt 0.0955 0.2599
vt 0.1013 0.2609
vt 0.0959 0.2560
vt 0.1028 0.2570
vt 0.0894 0.2523
vt 0.0896 0.2487
vt 0.0900 0.2449
vt 0.0904 0.2406
vt 0.0900 0.2643
vt 0.0896 0.2599
vt 0.0895 0.2559
vt 0.0818 0.2519
vt 0.0828 0.2477
vt 0.0843 0.2438
vt 0.0855 0.2397
vt 0.0848 0.2651
vt 0.0837 0.2608
vt 0.0823 0.2564
vt 0.0024 0.1925
vt 0.0098 0.1928
vt 0.0098 0.1964
vt 0.0028 0.1968
vt 0.0099 0.2002
vt 0.0041 0.2010
vt 0.0100 0.2045
vt 0.0051 0.2051
vt 0.0059 0.1802
vt 0.0108 0.1811
vt 0.0105 0.1854
vt 0.0047 0.1843
vt 0.0100 0.1893
vt 0.0032 0.1882
vt 0.0164 0.1931
vt 0.0162 0.1967
vt 0.0157 0.2006
vt 0.0150 0.2048
vt 0.0159 0.1811
vt 0.0163 0.1854
vt 0.0164 0.1895
vt 0.0241 0.1936
vt 0.0231 0.1979
vt 0.0214 0.2018
vt 0.0200 0.2060
vt 0.0211 0.1802
vt 0.0223 0.1845
vt 0.0237 0.1890
vt 0.6607 0.6158
vt 0.6556 0.5579
vt 0.7320 0.5579
vt 0.6789 0.7439
vt 0.7501 0.8018
vt 0.6737 0.8018
vt 0.7656 0.0383
vt 0.6273 0.0383
vt 0.6573 0.0021
vt 0.7491 0.0021
vt 0.3399 0.6851
vt 0.4782 0.6851
vt 0.4482 0.7212
vt 0.3564 0.7212
vt 0.2416 0.5511
vt 0.1034 0.5511
vt 0.1198 0.5150
vt 0.2116 0.5150
vt 0.2049 0.6471
vt 0.3432 0.6471
vt 0.3267 0.6832
vt 0.2349 0.6832
vt 0.0615 0.6960
vt 0.0940 0.7442
vt 0.0022 0.7442
vt 0.7062 0.9322
vt 0.7062 0.8558
vt 0.7641 0.9271
vt 0.1284 0.7113
vt 0.1505 0.6937
vt 0.4285 0.7903
vt 0.4285 0.8155
vt 0.7065 0.6937
vt 0.7286 0.7113
vt 0.0279 0.3143
vt 0.2275 0.3179
vt 0.2822 0.5099
vt 0.2779 0.9486
vt 0.0017 0.9486
vt 0.0017 0.9384
vt 0.2779 0.9384
vt 0.2691 0.8754
vt 0.5692 0.7712
vt 0.5692 0.7965
vt 0.2912 0.8930
vt 0.8693 0.8754
vt 0.8472 0.8930
vt 0.0826 0.5063
vt 0.0017 0.9195
vt 0.2779 0.9195
vt 0.2779 0.9297
vt 0.0017 0.9297
vt 0.0135 0.3006
vt 0.0941 0.5648
vt 0.0877 0.5735
vt 0.0019 0.2920
vt 0.3703 0.5648
vt 0.3820 0.5735
vt 0.2898 0.3006
vt 0.2962 0.2920
vt 0.2352 0.7585
vt 0.2785 0.8270
vt 0.0022 0.8270
vt 0.0812 0.7585
vt 0.5542 0.9195
vt 0.5542 0.9297
vt 0.5542 0.9486
vt 0.5542 0.9384
vt 0.6040 0.3829
vt 0.7305 0.3829
vt 0.7402 0.3978
vt 0.5863 0.3978
vt 0.6646 0.0423
vt 0.7911 0.0423
vt 0.8088 0.0572
vt 0.6548 0.0572
vt 0.8336 0.7574
vt 0.7071 0.7574
vt 0.6893 0.7424
vt 0.8433 0.7424
vt 0.4475 0.2765
vt 0.3210 0.2765
vt 0.3113 0.2616
vt 0.4653 0.2616
vt 0.3823 0.3553
vt 0.3033 0.2868
vt 0.5796 0.2868
vt 0.5363 0.3553
vt 0.3967 0.5234
vt 0.3534 0.4549
vt 0.6296 0.4549
vt 0.5507 0.5234
vt 0.3157 0.2388
vt 0.3591 0.1703
vt 0.5130 0.1703
vt 0.5920 0.2388
vn 0.0000 0.4667 -0.8844
vn -0.8906 0.4548 -0.0000
vn 0.1987 0.9801 0.0000
vn 0.0000 0.9961 0.0880
vn 0.8906 0.4548 0.0000
vn -0.1987 0.9801 0.0000
vn -0.0000 0.4667 0.8844
vn -0.0000 0.9961 -0.0880
vn 1.0000 0.0000 0.0000
vn 0.0000 0.0000 -1.0000
vn -1.0000 0.0000 -0.0000
vn -0.0000 0.0000 1.0000
vn 0.6581 -0.0000 -0.7529
vn -0.6581 -0.0000 -0.7529
vn -0.6608 0.3314 -0.6734
vn 0.6608 0.3314 -0.6734
vn -0.6663 0.5710 -0.4796
vn 0.6663 0.5710 -0.4796
vn -0.6707 0.7007 -0.2433
vn 0.6707 0.7007 -0.2433
vn -0.6723 0.7403 0.0000
vn 0.6723 0.7403 0.0000
vn -0.6707 0.7007 0.2434
vn 0.6707 0.7007 0.2434
vn -0.6663 0.5710 0.4796
vn 0.6663 0.5710 0.4796
vn -0.6608 0.3314 0.6734
vn 0.6608 0.3314 0.6734
vn -0.6581 -0.0000 0.7529
vn 0.6581 -0.0000 0.7529
vn -0.6608 -0.3314 0.6734
vn 0.6608 -0.3314 0.6734
vn -0.6663 -0.5710 0.4795
vn 0.6663 -0.5710 0.4795
vn -0.6707 -0.7006 0.2433
vn 0.6707 -0.7006 0.2433
vn -0.6723 -0.7403 0.0000
vn 0.6723 -0.7403 0.0000
vn -0.6707 -0.7006 -0.2433
vn 0.6707 -0.7006 -0.2433
vn -0.6663 -0.5710 -0.4795
vn 0.6663 -0.5710 -0.4795
vn 0.7601 0.2870 0.5830
vn -0.7601 0.2870 0.5830
vn -0.7530 0.5039 0.4232
vn 0.7530 0.5039 0.4232
vn -0.6608 -0.3314 -0.6734
vn 0.6608 -0.3314 -0.6734
vn 0.7637 0.0000 0.6456
vn -0.7637 0.0000 0.6456
vn 0.7601 -0.2870 0.5830
vn -0.7601 -0.2870 0.5830
vn 0.7530 -0.5039 0.4232
vn -0.7530 -0.5039 0.4232
vn 0.7475 -0.6275 0.2179
vn -0.7475 -0.6275 0.2179
vn 0.7456 -0.6664 -0.0000
vn -0.7456 -0.6664 -0.0000
vn 0.7475 -0.6275 -0.2179
vn -0.7475 -0.6275 -0.2179
vn 0.7530 -0.5039 -0.4232
vn -0.7530 -0.5039 -0.4232
vn 0.7601 -0.2870 -0.5830
vn -0.7601 -0.2870 -0.5830
vn 0.7637 0.0000 -0.6456
vn -0.7637 0.0000 -0.6456
vn 0.7601 0.2870 -0.5830
vn -0.7601 0.2870 -0.5830
vn 0.7530 0.5039 -0.4232
vn -0.7530 0.5039 -0.4232
vn 0.7475 0.6275 -0.2179
vn -0.7475 0.6275 -0.2179
vn 0.7456 0.6664 -0.0000
vn -0.7456 0.6664 -0.0000
vn 0.7475 0.6275 0.2179
vn -0.7475 0.6275 0.2179
vn -0.9808 -0.0000 0.1951
vn -0.9239 -0.0000 0.3827
vn -0.5026 0.8391 0.2082
vn -0.5408 0.8342 0.1076
vn 0.4160 0.8929 -0.1723
vn 0.4485 0.8893 -0.0892
vn 0.9239 -0.0000 -0.3827
vn 0.9808 -0.0000 -0.1951
vn 0.4160 -0.8929 -0.1723
vn 0.4485 -0.8893 -0.0892
vn -0.5026 -0.8391 0.2082
vn -0.5408 -0.8342 0.1076
vn -0.7071 0.0000 0.7071
vn -0.3846 0.8391 0.3846
vn 0.3184 0.8929 -0.3184
vn 0.7071 0.0000 -0.7071
vn 0.3184 -0.8929 -0.3184
vn -0.3846 -0.8391 0.3846
vn -0.5556 0.0000 0.8315
vn -0.3063 0.8342 0.4585
vn 0.2540 0.8893 -0.3802
vn 0.5556 -0.0000 -0.8315
vn 0.2540 -0.8893 -0.3802
vn -0.3063 -0.8342 0.4585
vn 0.5556 0.0000 0.8315
vn 0.7071 0.0000 0.7071
vn 0.3846 0.8391 0.3846
vn 0.3063 0.8342 0.4585
vn -0.3184 0.8929 -0.3184
vn -0.2540 0.8893 -0.3802
vn -0.7071 0.0000 -0.7071
vn -0.5555 -0.0000 -0.8315
vn -0.3184 -0.8929 -0.3184
vn -0.2540 -0.8893 -0.3802
vn 0.3846 -0.8391 0.3846
vn 0.3063 -0.8342 0.4585
vn 0.9239 -0.0000 0.3827
vn 0.5026 0.8391 0.2082
vn -0.4160 0.8929 -0.1723
vn -0.9239 -0.0000 -0.3827
vn -0.4160 -0.8929 -0.1723
vn 0.5026 -0.8391 0.2082
vn 0.9808 -0.0000 0.1951
vn 0.5408 0.8342 0.1076
vn -0.4485 0.8893 -0.0892
vn -0.9808 -0.0000 -0.1951
vn -0.4485 -0.8893 -0.0892
vn 0.5408 -0.8342 0.1076
vn -0.6000 0.8000 -0.0000
vn 0.0000 1.0000 0.0000
vn -0.0000 0.8536 -0.5210
vn 0.6000 0.8000 -0.0000
vn -0.7175 0.6966 -0.0000
vn -0.0000 0.7951 0.6065
vn 0.0000 0.8536 0.5210
vn 0.7175 0.6966 0.0000
vn -0.0000 0.7951 -0.6065
vn -0.0000 0.6657 0.7462
vn -0.0000 0.8251 0.5651
vn -0.5949 0.8038 -0.0000
vn -0.8343 0.5513 0.0000
vn 0.0000 0.8251 -0.5651
vn 0.0000 0.6657 -0.7462
vn 0.0000 -1.0000 -0.0000
vn 0.8343 0.5513 0.0000
vn 0.5949 0.8038 0.0000
vn -0.1862 0.9825 -0.0000
vn -0.0000 0.9795 0.2014
vn 0.0000 0.9513 -0.3081
vn 0.4007 0.9162 0.0000
vn 0.0000 0.9513 0.3081
vn 0.0000 0.9795 -0.2014
vn -0.4007 0.9162 -0.0000
vn 0.1862 0.9825 0.0000
usemtl amulet1_2
s 1
f 11/1/1 16/2/2 13/3/3 12/4/4
f 9/5/5 11/6/1 12/7/4 10/8/6
f 15/9/7 9/10/5 10/11/6 14/12/8
f 16/13/2 15/14/7 14/15/8 13/16/3
f 1/17/9 3/18/10 11/19/1 9/20/5
f 8/21/11 7/22/12 15/23/7 16/24/2
f 2/25/11 6/26/10 14/27/8 10/28/6
f 5/29/9 4/30/12 12/31/4 13/32/3
f 3/33/10 8/21/11 16/24/2 11/34/1
f 7/35/12 1/17/9 9/20/5 15/36/7
f 6/37/10 5/29/9 13/32/3 14/38/8
f 4/39/12 2/25/11 10/28/6 12/40/4
f 49/41/13 52/42/14 51/43/15 50/44/16
f 50/44/16 51/43/15 54/45/17 53/46/18
f 53/46/18 54/45/17 56/47/19 55/48/20
f 55/48/20 56/47/19 58/49/21 57/50/22
f 57/50/22 58/49/21 60/51/23 59/52/24
f 59/52/24 60/51/23 62/53/25 61/54/26
f 61/54/26 62/53/25 64/55/27 63/56/28
f 63/56/28 64/55/27 66/57/29 65/58/30
f 65/59/30 66/60/29 68/61/31 67/62/32
f 67/62/32 68/61/31 70/63/33 69/64/34
f 69/64/34 70/63/33 72/65/35 71/66/36
f 71/66/36 72/65/35 74/67/37 73/68/38
f 73/68/38 74/67/37 76/69/39 75/70/40
f 75/70/40 76/69/39 78/71/41 77/72/42
f 47/73/43 48/74/44 46/75/45 45/76/46
f 77/72/42 78/71/41 80/77/47 79/78/48
f 79/78/48 80/77/47 52/42/14 49/41/13
f 17/79/49 18/80/50 48/74/44 47/73/43
f 19/81/51 17/82/49 49/83/13 50/84/16
f 18/85/50 20/86/52 51/87/15 52/88/14
f 21/89/53 19/81/51 50/84/16 53/90/18
f 20/86/52 22/91/54 54/92/17 51/87/15
f 23/93/55 21/89/53 53/90/18 55/94/20
f 22/91/54 24/95/56 56/96/19 54/92/17
f 25/97/57 23/93/55 55/94/20 57/98/22
f 24/95/56 26/99/58 58/100/21 56/96/19
f 27/101/59 25/97/57 57/98/22 59/102/24
f 26/99/58 28/103/60 60/104/23 58/100/21
f 29/105/61 27/101/59 59/102/24 61/106/26
f 28/103/60 30/107/62 62/108/25 60/104/23
f 31/109/63 29/105/61 61/106/26 63/110/28
f 30/107/62 32/111/64 64/112/27 62/108/25
f 33/113/65 31/109/63 63/110/28 65/114/30
f 32/111/64 34/115/66 66/116/29 64/112/27
f 35/117/67 33/113/65 65/114/30 67/118/32
f 34/115/66 36/119/68 68/120/31 66/116/29
f 37/121/69 35/117/67 67/118/32 69/122/34
f 36/119/68 38/123/70 70/124/33 68/120/31
f 39/125/71 37/121/69 69/122/34 71/126/36
f 38/123/70 40/127/72 72/128/35 70/124/33
f 41/129/73 39/125/71 71/126/36 73/130/38
f 40/127/72 42/131/74 74/132/37 72/128/35
f 43/133/75 41/129/73 73/130/38 75/134/40
f 42/131/74 44/135/76 76/136/39 74/132/37
f 45/137/46 43/133/75 75/134/40 77/138/42
f 44/135/76 46/139/45 78/140/41 76/136/39
f 47/141/43 45/137/46 77/138/42 79/142/48
f 46/139/45 48/143/44 80/144/47 78/140/41
f 17/82/49 47/141/43 79/142/48 49/83/13
f 48/143/44 18/85/50 52/88/14 80/144/47
f 45/76/46 46/75/45 44/145/76 43/146/75
f 43/146/75 44/145/76 42/147/74 41/148/73
f 41/148/73 42/147/74 40/149/72 39/150/71
f 39/150/71 40/149/72 38/151/70 37/152/69
f 37/152/69 38/151/70 36/153/68 35/154/67
f 35/154/67 36/153/68 34/155/66 33/156/65
f 33/156/65 34/155/66 32/157/64 31/158/63
f 31/158/63 32/157/64 30/159/62 29/160/61
f 29/160/61 30/159/62 28/161/60 27/162/59
f 27/162/59 28/161/60 26/163/58 25/164/57
f 25/164/57 26/163/58 24/165/56 23/166/55
f 23/166/55 24/165/56 22/167/54 21/168/53
f 21/168/53 22/167/54 20/169/52 19/170/51
f 19/170/51 20/169/52 18/80/50 17/79/49
f 81/171/77 87/172/78 88/173/79 82/174/80
f 82/174/80 88/173/79 89/175/81 83/176/82
f 83/176/82 89/175/81 90/177/83 84/178/84
f 84/179/84 90/180/83 91/181/85 85/182/86
f 85/182/86 91/181/85 92/183/87 86/184/88
f 81/171/77 86/184/88 92/183/87 87/172/78
f 87/172/78 93/185/89 94/186/90 88/173/79
f 88/173/79 94/186/90 95/187/91 89/175/81
f 89/175/81 95/187/91 96/188/92 90/177/83
f 90/180/83 96/189/92 97/190/93 91/181/85
f 91/181/85 97/190/93 98/191/94 92/183/87
f 92/183/87 98/191/94 93/185/89 87/172/78
f 93/185/89 99/192/95 100/193/96 94/186/90
f 94/186/90 100/193/96 101/194/97 95/187/91
f 95/187/91 101/194/97 102/195/98 96/188/92
f 96/189/92 102/196/98 103/197/99 97/190/93
f 97/190/93 103/197/99 104/198/100 98/191/94
f 98/191/94 104/198/100 99/192/95 93/185/89
f 105/199/101 111/200/102 112/201/103 106/202/104
f 106/202/104 112/201/103 113/203/105 107/204/106
f 107/204/106 113/203/105 114/205/107 108/206/108
f 108/207/108 114/208/107 115/209/109 109/210/110
f 109/210/110 115/209/109 116/211/111 110/212/112
f 110/212/112 116/211/111 111/200/102 105/199/101
f 111/200/102 117/213/113 118/214/114 112/201/103
f 112/201/103 118/214/114 119/215/115 113/203/105
f 113/203/105 119/215/115 120/216/116 114/205/107
f 114/208/107 120/217/116 121/218/117 115/209/109
f 115/209/109 121/218/117 122/219/118 116/211/111
f 116/211/111 122/219/118 117/213/113 111/200/102
f 117/213/113 123/220/119 124/221/120 118/214/114
f 118/214/114 124/221/120 125/222/121 119/215/115
f 119/215/115 125/222/121 126/223/122 120/216/116
f 120/217/116 126/224/122 127/225/123 121/218/117
f 121/218/117 127/225/123 128/226/124 122/219/118
f 122/219/118 128/226/124 123/220/119 117/213/113
f 135/227/125 137/228/126 134/229/127
f 136/230/128 134/231/127 137/232/126
f 129/233/129 131/234/130 133/235/131 135/236/125
f 130/237/132 132/238/133 134/239/127 136/240/128
f 132/241/133 129/242/129 135/243/125 134/244/127
f 131/245/130 130/246/132 136/247/128 133/248/131
f 137/249/126 135/250/125 133/251/131
f 137/252/126 133/253/131 136/254/128
f 163/255/134 146/256/135 147/257/136 162/258/137
f 162/258/137 147/257/136 148/259/138 164/260/139
f 140/261/140 138/262/140 142/263/140
f 167/264/11 166/265/12 150/266/7 152/267/2
f 163/268/134 165/269/141 149/270/142 146/271/135
f 165/269/141 164/272/139 148/273/138 149/270/142
f 140/261/140 142/263/140 144/274/140
f 166/275/12 169/276/9 153/277/5 150/278/7
f 141/279/126 139/280/126 147/281/136 146/282/135
f 139/280/126 168/283/126 148/284/138 147/281/136
f 145/285/126 141/279/126 146/282/135 149/286/142
f 168/283/126 145/285/126 149/286/142 148/284/138
f 159/287/143 152/288/2 150/289/7 154/290/144
f 169/276/9 143/291/10 151/292/1 153/277/5
f 143/293/10 167/264/11 152/267/2 151/294/1
f 158/295/145 156/296/146 159/297/143 154/298/144
f 156/299/146 160/300/147 155/301/148 159/302/143
f 157/303/149 158/304/145 154/305/144 161/306/150
f 160/307/147 157/308/149 161/309/150 155/310/148
f 154/311/144 150/312/7 153/313/5 161/314/150
f 161/315/150 153/316/5 151/317/1 155/318/148
f 152/319/2 159/320/143 155/321/148 151/322/1
